<?xml version="1.0" encoding="UTF-8"?>
<svg version="1.1" xmlns="http://www.w3.org/2000/svg" width="180" height="180">
<path d="M0 0 C1.24201172 -0.01611328 2.48402344 -0.03222656 3.76367188 -0.04882812 C27.80197934 -0.06143343 48.28685861 11.26384881 65.3125 27.5625 C78.65294198 41.22281154 88.89356641 60.92728825 89.6875 80.3125 C89.7390625 81.45976563 89.790625 82.60703125 89.84375 83.7890625 C90.13589022 93.63626591 88.90839689 102.7335849 86.6875 112.3125 C86.49414062 113.20324219 86.30078125 114.09398438 86.1015625 115.01171875 C82.94839624 127.39915762 75.18870869 139.84123638 66.6875 149.3125 C66.0275 149.3125 65.3675 149.3125 64.6875 149.3125 C64.6875 149.9725 64.6875 150.6325 64.6875 151.3125 C44.3658275 170.5940869 21.28972374 178.32180594 -6.3515625 177.66015625 C-31.35742284 176.54389464 -51.74318356 164.55783272 -68.75390625 146.7578125 C-78.69832271 135.37794114 -84.94691048 121.95682105 -88.3125 107.3125 C-88.48612061 106.72162598 -88.65974121 106.13075195 -88.83862305 105.52197266 C-91.89974312 91.24936232 -90.67055306 72.87277812 -85.3125 59.3125 C-84.97734375 58.45269531 -84.6421875 57.59289063 -84.296875 56.70703125 C-83.37731205 54.52854282 -82.36964315 52.42678631 -81.3125 50.3125 C-81.04050781 49.68601563 -80.76851562 49.05953125 -80.48828125 48.4140625 C-72.8804997 31.54613056 -58.84717393 19.5182327 -43.3125 10.3125 C-42.50039063 9.78785156 -41.68828125 9.26320313 -40.8515625 8.72265625 C-37.68798931 6.96565637 -34.49981933 5.87809143 -31.0625 4.75 C-29.81984375 4.33621094 -28.5771875 3.92242187 -27.296875 3.49609375 C-25.97126992 3.09317677 -24.64305164 2.69876836 -23.3125 2.3125 C-22.65677002 2.11906006 -22.00104004 1.92562012 -21.32543945 1.72631836 C-14.27897333 -0.10545195 -7.24178733 -0.01861642 0 0 Z M-45.3125 36.3125 C-46.23933594 37.14910156 -47.16617188 37.98570313 -48.12109375 38.84765625 C-60.23291729 50.26925376 -68.56013559 65.51197361 -69.41894531 82.40649414 C-69.78672814 95.02435087 -69.78672814 95.02435087 -67.3125 107.3125 C-67.05597656 108.240625 -66.79945312 109.16875 -66.53515625 110.125 C-61.27837641 127.81304889 -48.49552256 141.90858957 -32.5234375 150.87890625 C-15.82401139 158.93986842 3.06903661 160.62376925 20.83984375 155.3828125 C37.17541571 149.64061145 50.92002073 139.38641173 59.6875 124.3125 C60.12835938 123.55453125 60.56921875 122.7965625 61.0234375 122.015625 C70.25880883 104.88820907 71.36400742 86.85452392 66.6875 68.3125 C61.75115467 51.83794913 49.50354732 36.9026551 34.6875 28.3125 C9.13238748 15.81952183 -23.74143336 16.07427975 -45.3125 36.3125 Z " fill="#32495B" transform="translate(89.3125,-0.3125)"/>
<path d="M0 0 C1.1859375 0.00257812 2.371875 0.00515625 3.59375 0.0078125 C4.7796875 0.00523438 5.965625 0.00265625 7.1875 0 C10.09375 0.1328125 10.09375 0.1328125 11.09375 1.1328125 C11.21031038 3.97637813 11.26177303 6.79597158 11.27075195 9.640625 C11.28060875 10.97978218 11.28060875 10.97978218 11.29066467 12.34599304 C11.3104597 15.3166003 11.32207777 18.28715671 11.33203125 21.2578125 C11.33610678 22.27169037 11.3401823 23.28556824 11.34438133 24.33016968 C11.36527459 29.7026957 11.37955871 35.07519599 11.38891602 40.44775391 C11.39995042 45.98813828 11.43430669 51.52811767 11.47408772 57.06835938 C11.50029632 61.33389001 11.50861194 65.59932514 11.51219749 69.8649292 C11.51705728 71.9061759 11.52865385 73.94741851 11.54723549 75.98858643 C11.57170306 78.85599231 11.57064725 81.72236443 11.5637207 84.58984375 C11.57653076 85.42553391 11.58934082 86.26122406 11.60253906 87.12223816 C11.54160693 94.0847178 9.61456775 100.01947264 5.19921875 105.47265625 C-0.74637076 110.42529598 -5.92260231 112.61743889 -13.859375 112.38671875 C-19.76660716 111.6539514 -24.58125301 109.2033979 -28.90625 105.1328125 C-30.90625 102.1328125 -30.90625 102.1328125 -30.7734375 100.18359375 C-29.65495579 97.53853565 -28.19183801 96.19994493 -26.03125 94.3203125 C-25.33257812 93.69511719 -24.63390625 93.06992188 -23.9140625 92.42578125 C-22.92019531 91.78576172 -22.92019531 91.78576172 -21.90625 91.1328125 C-18.90625 92.1328125 -18.90625 92.1328125 -17.59375 94.1328125 C-15.99480743 96.39873845 -15.99480743 96.39873845 -12.96875 97.0078125 C-9.80920721 97.13677343 -8.46068314 96.93037656 -5.90625 95.1328125 C-4.25034501 91.82100252 -4.7346961 88.11871394 -4.71679688 84.47631836 C-4.70850357 83.58030411 -4.70021027 82.68428986 -4.69166565 81.76112366 C-4.67424493 79.81206481 -4.65908367 77.86298478 -4.64588928 75.91389275 C-4.62490934 72.83434878 -4.59788404 69.75491163 -4.56921387 66.6754303 C-4.49928324 59.02787552 -4.43990349 51.3802451 -4.38018799 43.73260498 C-4.3293497 37.2718765 -4.27455653 30.8112057 -4.21437073 24.35055733 C-4.18769683 21.3076102 -4.16694363 18.264658 -4.1463623 15.22166443 C-4.12976729 13.36774436 -4.11289616 11.51382673 -4.09570312 9.65991211 C-4.09151871 8.80638153 -4.08733429 7.95285095 -4.08302307 7.07345581 C-4.00861065 0.1831892 -4.00861065 0.1831892 0 0 Z " fill="#3D5364" transform="translate(85.90625,30.8671875)"/>
<path d="M0 0 C1.32 0 2.64 0 4 0 C4 25.74 4 51.48 4 78 C-0.62 78 -5.24 78 -10 78 C-10 73.38 -10 68.76 -10 64 C-14.62 64 -19.24 64 -24 64 C-24.66 65.65 -25.32 67.3 -26 69 C-27.61081928 72.42299097 -29.23742814 75.38282666 -32 78 C-35.45632748 78.76348726 -38.52199285 78.55675609 -42 78 C-42.82304235 69.66506321 -42.5190122 64.4635642 -37.234375 57.87890625 C-34.48460381 54.33593183 -32.2348313 50.59585024 -29.9375 46.75 C-24.92433592 38.44402369 -19.74071175 30.25383688 -14.50756836 22.08496094 C-13.93530518 21.19067383 -13.36304199 20.29638672 -12.7734375 19.375 C-12.26216309 18.57835938 -11.75088867 17.78171875 -11.22412109 16.9609375 C-9.97495149 15.02846476 -9.97495149 15.02846476 -9 13 C-8.34 13 -7.68 13 -7 13 C-6.89300781 12.43796875 -6.78601562 11.8759375 -6.67578125 11.296875 C-5.88394825 8.60555821 -4.70772509 6.60538673 -3.1875 4.25 C-2.68605469 3.45078125 -2.18460938 2.6515625 -1.66796875 1.828125 C-1.11753906 1.22484375 -0.56710938 0.6215625 0 0 Z M-12 43 C-12.99 44.98 -13.98 46.96 -15 49 C-13.35 49 -11.7 49 -10 49 C-10 47.02 -10 45.04 -10 43 C-10.66 43 -11.32 43 -12 43 Z " fill="#30495A" transform="translate(69,37)"/>
<path d="M0 0 C1.1859375 0.00257812 2.371875 0.00515625 3.59375 0.0078125 C4.7796875 0.00523438 5.965625 0.00265625 7.1875 0 C10.09375 0.1328125 10.09375 0.1328125 11.09375 1.1328125 C11.1877567 3.09650403 11.21118381 5.06360449 11.20727539 7.02954102 C11.20719986 8.29077286 11.20712433 9.5520047 11.20704651 10.85145569 C11.2019391 12.23821044 11.19672309 13.62496479 11.19140625 15.01171875 C11.18954201 16.42276459 11.18811814 17.83381107 11.18711853 19.24485779 C11.18329379 22.96521785 11.1734639 26.6855391 11.16241455 30.40588379 C11.15040461 34.86621041 11.14579798 39.32654998 11.13996124 43.78688812 C11.1302521 50.56888994 11.11109528 57.35080653 11.09375 64.1328125 C20.99375 64.1328125 30.89375 64.1328125 41.09375 64.1328125 C41.09375 68.7528125 41.09375 73.3728125 41.09375 78.1328125 C34.84578746 78.15745705 28.59785297 78.17564593 22.34985352 78.18774414 C20.22256986 78.19278548 18.09528969 78.19961841 15.96801758 78.20825195 C12.91747174 78.22032629 9.86697155 78.22604264 6.81640625 78.23046875 C5.38047874 78.23821068 5.38047874 78.23821068 3.9155426 78.24610901 C3.03470505 78.24618454 2.15386749 78.24626007 1.24633789 78.24633789 C0.46690323 78.2485585 -0.31253143 78.25077911 -1.11558533 78.25306702 C-2.90625 78.1328125 -2.90625 78.1328125 -3.90625 77.1328125 C-4.00650695 74.76519675 -4.04243935 72.42674177 -4.03564453 70.05859375 C-4.03739685 69.31878265 -4.03914917 68.57897156 -4.04095459 67.81674194 C-4.0453731 65.35957527 -4.04243513 62.90247997 -4.0390625 60.4453125 C-4.03973554 58.74519843 -4.04070557 57.04508445 -4.04196167 55.3449707 C-4.04343864 51.77717169 -4.04128411 48.20939767 -4.03662109 44.64160156 C-4.0309238 40.05792756 -4.03420281 35.47431211 -4.04019356 30.89064026 C-4.04379919 27.37861689 -4.04266057 23.86660752 -4.04006577 20.35458374 C-4.0393965 18.66401157 -4.04022489 16.97343814 -4.04254532 15.28286743 C-4.04507189 12.92422093 -4.04123121 10.56567055 -4.03564453 8.20703125 C-4.03766876 7.50154144 -4.03969299 6.79605164 -4.04177856 6.06918335 C-4.01582235 0.18351876 -4.01582235 0.18351876 0 0 Z " fill="#435868" transform="translate(108.90625,36.8671875)"/>
<path d="M0 0 C0 3 0 3 -1.5625 4.9375 C-3.24501387 6.88272714 -3.24501387 6.88272714 -2.8125 9.1875 C-2.14365117 11.1920235 -2.14365117 11.1920235 0 12 C-0.33 12.66 -0.66 13.32 -1 14 C-3.5625 11.75 -3.5625 11.75 -6 9 C-6.125 7 -6.125 7 -5 5 C-2.4375 2.25 -2.4375 2.25 0 0 Z " fill="#818F99" transform="translate(61,124)"/>
<path d="M0 0 C0.33 0.66 0.66 1.32 1 2 C-2.15221101 6.41309542 -5.55463907 9.00793014 -10 12 C-8.52278578 8.54798361 -6.56205999 6.35038064 -3.875 3.75 C-3.15054687 3.04359375 -2.42609375 2.3371875 -1.6796875 1.609375 C-1.12539063 1.07828125 -0.57109375 0.5471875 0 0 Z " fill="#8F9EA8" transform="translate(29,22)"/>
</svg>
